<?xml version="1.0" encoding="UTF-8" standalone="no"?>
<!DOCTYPE svg PUBLIC "-//W3C//DTD SVG 1.1//EN"
 "http://www.w3.org/Graphics/SVG/1.1/DTD/svg11.dtd">
<!-- Generated by graphviz version 12.1.1 (20240910.0053)
 -->
<!-- Pages: 1 -->
<svg width="288pt" height="116pt"
 viewBox="0.00 0.00 287.85 116.00" xmlns="http://www.w3.org/2000/svg" xmlns:xlink="http://www.w3.org/1999/xlink">
<g id="graph0" class="graph" transform="scale(1 1) rotate(0) translate(4 112)">
<polygon fill="white" stroke="none" points="-4,4 -4,-112 283.85,-112 283.85,4 -4,4"/>
<!-- A -->
<g id="node1" class="node">
<title>A</title>
<ellipse fill="none" stroke="black" cx="142.24" cy="-90" rx="80.52" ry="18"/>
<text text-anchor="middle" x="142.24" y="-84.95" font-family="Times,serif" font-size="14.00">Body Temperature</text>
</g>
<!-- B -->
<g id="node2" class="node">
<title>B</title>
<ellipse fill="none" stroke="black" cx="68.24" cy="-18" rx="68.24" ry="18"/>
<text text-anchor="middle" x="68.24" y="-12.95" font-family="Times,serif" font-size="14.00">Warm Blooded</text>
</g>
<!-- A&#45;&gt;B -->
<g id="edge1" class="edge">
<title>A&#45;&gt;B</title>
<path fill="none" stroke="black" d="M124.33,-72.05C115.33,-63.54 104.26,-53.07 94.33,-43.68"/>
<polygon fill="black" stroke="black" points="96.76,-41.16 87.09,-36.83 91.95,-46.24 96.76,-41.16"/>
</g>
<!-- C -->
<g id="node3" class="node">
<title>C</title>
<ellipse fill="none" stroke="black" cx="217.24" cy="-18" rx="62.61" ry="18"/>
<text text-anchor="middle" x="217.24" y="-12.95" font-family="Times,serif" font-size="14.00">Cold Blooded</text>
</g>
<!-- A&#45;&gt;C -->
<g id="edge2" class="edge">
<title>A&#45;&gt;C</title>
<path fill="none" stroke="black" d="M160.4,-72.05C169.68,-63.39 181.13,-52.7 191.32,-43.19"/>
<polygon fill="black" stroke="black" points="193.48,-45.96 198.41,-36.58 188.71,-40.84 193.48,-45.96"/>
</g>
</g>
</svg>
