<?xml version="1.0" encoding="UTF-8" standalone="no"?>
<!DOCTYPE svg PUBLIC "-//W3C//DTD SVG 1.1//EN"
 "http://www.w3.org/Graphics/SVG/1.1/DTD/svg11.dtd">
<!-- Generated by graphviz version 12.1.1 (20240910.0053)
 -->
<!-- Pages: 1 -->
<svg width="196pt" height="133pt"
 viewBox="0.00 0.00 195.51 132.50" xmlns="http://www.w3.org/2000/svg" xmlns:xlink="http://www.w3.org/1999/xlink">
<g id="graph0" class="graph" transform="scale(1 1) rotate(0) translate(4 128.5)">
<polygon fill="white" stroke="none" points="-4,4 -4,-128.5 191.51,-128.5 191.51,4 -4,4"/>
<!-- A -->
<g id="node1" class="node">
<title>A</title>
<text text-anchor="middle" x="27" y="-101.45" font-family="Times,serif" font-size="14.00">{acd}</text>
</g>
<!-- C -->
<g id="node3" class="node">
<title>C</title>
<text text-anchor="middle" x="76" y="-12.95" font-family="Times,serif" font-size="14.00">{acde}</text>
</g>
<!-- A&#45;&gt;C -->
<g id="edge1" class="edge">
<title>A&#45;&gt;C</title>
<path fill="none" stroke="black" d="M23.8,-88.8C22.62,-78.24 22.7,-64.62 28.25,-54 31.13,-48.48 35.33,-43.61 40.06,-39.39"/>
<polygon fill="black" stroke="black" points="41.99,-42.32 47.76,-33.43 37.71,-36.78 41.99,-42.32"/>
<text text-anchor="middle" x="66.12" y="-57.2" font-family="Times,serif" font-size="14.00">p.item_k = &#39;d&#39;</text>
</g>
<!-- B -->
<g id="node2" class="node">
<title>B</title>
<text text-anchor="middle" x="126" y="-101.45" font-family="Times,serif" font-size="14.00">{ace}</text>
</g>
<!-- B&#45;&gt;C -->
<g id="edge2" class="edge">
<title>B&#45;&gt;C</title>
<path fill="none" stroke="black" d="M120.15,-88.71C116.23,-78.36 110.59,-65.01 104,-54 102.12,-50.86 99.99,-47.7 97.76,-44.62"/>
<polygon fill="black" stroke="black" points="100.74,-42.75 91.86,-36.97 95.19,-47.02 100.74,-42.75"/>
<text text-anchor="middle" x="150.01" y="-57.2" font-family="Times,serif" font-size="14.00">q.item_k = &#39;e&#39;</text>
</g>
</g>
</svg>
