<?xml version="1.0" encoding="UTF-8" standalone="no"?>
<!DOCTYPE svg PUBLIC "-//W3C//DTD SVG 1.1//EN"
 "http://www.w3.org/Graphics/SVG/1.1/DTD/svg11.dtd">
<!-- Generated by graphviz version 12.1.1 (20240910.0053)
 -->
<!-- Pages: 1 -->
<svg width="200pt" height="133pt"
 viewBox="0.00 0.00 200.13 132.50" xmlns="http://www.w3.org/2000/svg" xmlns:xlink="http://www.w3.org/1999/xlink">
<g id="graph0" class="graph" transform="scale(1 1) rotate(0) translate(4 128.5)">
<polygon fill="white" stroke="none" points="-4,4 -4,-128.5 196.13,-128.5 196.13,4 -4,4"/>
<!-- A -->
<g id="node1" class="node">
<title>A</title>
<text text-anchor="middle" x="31.62" y="-101.45" font-family="Times,serif" font-size="14.00">{a, c, d}</text>
</g>
<!-- C -->
<g id="node3" class="node">
<title>C</title>
<text text-anchor="middle" x="80.62" y="-12.95" font-family="Times,serif" font-size="14.00">{a, c, d, e}</text>
</g>
<!-- A&#45;&gt;C -->
<g id="edge1" class="edge">
<title>A&#45;&gt;C</title>
<path fill="none" stroke="black" d="M28.43,-88.8C27.24,-78.24 27.33,-64.62 32.88,-54 34.85,-50.22 37.43,-46.75 40.38,-43.59"/>
<polygon fill="black" stroke="black" points="42.66,-46.24 47.73,-36.94 37.97,-41.05 42.66,-46.24"/>
<text text-anchor="middle" x="70.75" y="-57.2" font-family="Times,serif" font-size="14.00">p.item_k = &#39;d&#39;</text>
</g>
<!-- B -->
<g id="node2" class="node">
<title>B</title>
<text text-anchor="middle" x="130.62" y="-101.45" font-family="Times,serif" font-size="14.00">{a, c, e}</text>
</g>
<!-- B&#45;&gt;C -->
<g id="edge2" class="edge">
<title>B&#45;&gt;C</title>
<path fill="none" stroke="black" d="M124.78,-88.71C120.86,-78.36 115.21,-65.01 108.62,-54 106.75,-50.86 104.61,-47.7 102.39,-44.62"/>
<polygon fill="black" stroke="black" points="105.36,-42.75 96.48,-36.97 99.82,-47.02 105.36,-42.75"/>
<text text-anchor="middle" x="154.63" y="-57.2" font-family="Times,serif" font-size="14.00">q.item_k = &#39;e&#39;</text>
</g>
</g>
</svg>
